<?xml version="1.0" encoding="UTF-8"?>
<svg id="Layer_1" data-name="Layer 1" xmlns="http://www.w3.org/2000/svg" viewBox="0 0 364.28 512.37">
  <path d="M0,512.37V40.74L233.05.67c65.89-6.92,121.47,40.96,129.01,105.68-3.72,80.75,6.05,167.57.44,247.6-3.46,49.31-28.89,87.62-74.76,106.43L0,512.37ZM53.29,87.37v363.72l213.09-38.71c16-3.38,42.71-32.52,42.71-47.89v-166.54l-154.55,26.65v50.63l103.92-15.99v89.26c0,8.16-12.29,15.61-19.55,17.76-41.14,12.19-92.6,13.63-135,23.54V128.67l131.76-23.86c26.52,5.62,23.56,25.54,22.8,47.83l50.48-8.11c6.88-47.66-12.86-89.93-64.73-92.92L57.79,83.87l-4.5,3.5Z"/>
</svg>