<?xml version="1.0" encoding="UTF-8"?>
<svg id="Layer_1" xmlns="http://www.w3.org/2000/svg" version="1.1" viewBox="0 0 954.29 208.94">
  <!-- Generator: Adobe Illustrator 29.6.1, SVG Export Plug-In . SVG Version: 2.1.1 Build 9)  -->
  <defs>
    <style>
      .st0 {
        fill: #155dfc;
      }

      .st1 {
        fill: #fff;
        stroke: #fff;
        stroke-miterlimit: 10;
        stroke-width: 7px;
      }
    </style>
  </defs>
  <path class="st1" d="M656.64,68.34c-39.93,5.42-39.81,67.47,0,72.85,58.5,7.9,59.4-80.92,0-72.85Z"/>
  <path d="M397.63,132.39c-.3,3.86-1.43,9.83-2.59,13.6-8.53,27.83-51.99,29.06-67.88,7.35l11.07-10.88c3.44,1.77,5.55,5.03,9.22,6.77,16.72,7.92,32.4-1.14,30.17-20.17-15.78,17.76-45.74,8.55-51.91-13.33-2.6-9.24-2.36-21.71,1.93-30.46,9.23-18.85,35.48-23.78,50.93-9.55v-6.67h19.06v63.34ZM372.53,117.29c9.25-8.54,6.86-28.54-6.93-31.94-18.29-4.51-28.43,16.67-17.93,30.31,5.51,7.16,18.32,7.66,24.86,1.63Z"/>
  <path class="st0" d="M784.37,140.01c-3.78,31.94-51.77,37.19-68.35,13.32l10.72-9.95c14.55,15.17,41.64,12.02,38.57-13.37l-9.53,6.17c-29.58,9.57-50.7-17.86-42.19-46,5.46-18.03,25.45-26.65,42.87-20.39,4.01,1.44,6.1,4.54,9.8,5.91v-5.71h18.1v70.01ZM746.06,84.51c-21.42,2.34-20.1,41.35,7.12,36.7,11.29-1.93,13.57-14.28,12.07-24-1.26-8.21-11.51-13.54-19.2-12.7Z"/>
  <path d="M433.83,41.42v35.24c13.29-13.77,38.72-12.96,46.85,6.01.64,1.5,2.68,7.63,2.68,8.75v49.06h-20v-43.34c0-.97-3.21-7.14-4.27-8.12-6.01-5.57-16.99-4.48-22.26,1.6-6.15,7.09-3.06,17.49-2.97,25.53.1,8.1-.15,16.24-.04,24.33h-20V41.42h20Z"/>
  <path d="M240.46,46.18v18.1h-50.49v21.43l1.43,1.43h41.91c.33,0,1.06-1.69,2.38.48v15.24l-1.43,1.43h-43.34l-.95,36.2h-19.05l-1-91.02,1.48-3.29h69.06Z"/>
  <path class="st0" d="M658.4,68.34c59.4-8.07,58.5,80.76,0,72.85-39.81-5.38-39.93-67.43,0-72.85ZM664.15,84.49c-22.81,2.29-22.32,43.72,5.35,39.72,20.1-2.91,18.08-42.07-5.35-39.72Z"/>
  <polygon class="st0" points="575.76 47.13 575.76 122.38 622.91 122.38 624.34 123.81 624.34 140.48 557.18 140.48 555.75 139.05 555.75 47.13 575.76 47.13"/>
  <path d="M523.37,50.94v18.1h17.15v16.19h-17.15v33.82c0,6.22,13.1,6.01,17.14,3.33l4.65,15.13c-11.7,6.81-30.53,7.15-38.18-5.88-1.04-1.77-3.61-9.02-3.61-10.68v-35.72h-10.48v-16.19h10.48v-18.1h20Z"/>
  <path d="M269.99,41.42v79.54c0,2.97,7.1,3.84,9.52,2.38-.64,3.46,3.48,14.81.97,16.69-.57.43-8.92,2.22-10.17,2.29-7.51.4-15.06-3.37-17.94-10.42-.53-1.3-2.39-7.21-2.39-8.08V41.42h20Z"/>
  <polygon points="310.95 69.04 310.95 140.48 292.38 140.48 290.95 139.05 290.95 69.04 310.95 69.04"/>
  <path d="M292.22,41.74c10.25-10.87,28.74,4.18,17.34,15.91-10.13,10.43-27.81-4.81-17.34-15.91Z"/>
</svg>